<mxfile host="Electron" modified="2023-08-31T08:33:54.643Z" agent="Mozilla/5.0 (Windows NT 10.0; Win64; x64) AppleWebKit/537.36 (KHTML, like Gecko) draw.io/21.6.8 Chrome/114.0.5735.289 Electron/25.5.0 Safari/537.36" etag="5AYuLua9xjCVrIFOw4N-" version="21.6.8" type="device">
  <diagram id="kgpKYQtTHZ0yAKxKKP6v" name="Page-1">
    <mxGraphModel dx="1080" dy="645" grid="1" gridSize="10" guides="1" tooltips="1" connect="1" arrows="1" fold="1" page="1" pageScale="1" pageWidth="850" pageHeight="1100" math="0" shadow="0">
      <root>
        <mxCell id="0" />
        <mxCell id="1" parent="0" />
        <mxCell id="PeCGJ06TXOLZpOecFhSK-28" value="Teh Starbuck" style="text;html=1;align=center;verticalAlign=middle;resizable=0;points=[];autosize=1;strokeColor=none;fillColor=none;" parent="1" vertex="1">
          <mxGeometry x="425" y="100" width="90" height="30" as="geometry" />
        </mxCell>
        <mxCell id="PeCGJ06TXOLZpOecFhSK-32" value="" style="edgeStyle=orthogonalEdgeStyle;rounded=0;orthogonalLoop=1;jettySize=auto;html=1;entryX=0.5;entryY=0;entryDx=0;entryDy=0;" parent="1" source="PeCGJ06TXOLZpOecFhSK-30" target="PeCGJ06TXOLZpOecFhSK-43" edge="1">
          <mxGeometry relative="1" as="geometry" />
        </mxCell>
        <mxCell id="PeCGJ06TXOLZpOecFhSK-30" value="&lt;font style=&quot;font-size: 30px;&quot;&gt;Mulai&lt;/font&gt;" style="ellipse;whiteSpace=wrap;html=1;" parent="1" vertex="1">
          <mxGeometry x="365" y="70" width="190" height="110" as="geometry" />
        </mxCell>
        <mxCell id="PeCGJ06TXOLZpOecFhSK-47" style="edgeStyle=orthogonalEdgeStyle;rounded=0;orthogonalLoop=1;jettySize=auto;html=1;entryX=0;entryY=0.5;entryDx=0;entryDy=0;" parent="1" source="PeCGJ06TXOLZpOecFhSK-42" target="PeCGJ06TXOLZpOecFhSK-46" edge="1">
          <mxGeometry relative="1" as="geometry" />
        </mxCell>
        <mxCell id="PeCGJ06TXOLZpOecFhSK-44" style="edgeStyle=orthogonalEdgeStyle;rounded=0;orthogonalLoop=1;jettySize=auto;html=1;entryX=0.5;entryY=0;entryDx=0;entryDy=0;" parent="1" source="PeCGJ06TXOLZpOecFhSK-43" target="PeCGJ06TXOLZpOecFhSK-42" edge="1">
          <mxGeometry relative="1" as="geometry" />
        </mxCell>
        <mxCell id="PeCGJ06TXOLZpOecFhSK-43" value="&lt;font style=&quot;font-size: 17px;&quot;&gt;Siapkan, Air, Pop Mie, Panci&lt;/font&gt;" style="shape=hexagon;perimeter=hexagonPerimeter2;whiteSpace=wrap;html=1;fixedSize=1;" parent="1" vertex="1">
          <mxGeometry x="370" y="220" width="180" height="110" as="geometry" />
        </mxCell>
        <mxCell id="AgGkoCsOweHNP-nbP5R2-15" style="edgeStyle=orthogonalEdgeStyle;rounded=0;orthogonalLoop=1;jettySize=auto;html=1;entryX=1;entryY=0.5;entryDx=0;entryDy=0;" edge="1" parent="1" source="PeCGJ06TXOLZpOecFhSK-46" target="AgGkoCsOweHNP-nbP5R2-3">
          <mxGeometry relative="1" as="geometry">
            <Array as="points">
              <mxPoint x="715" y="615" />
            </Array>
          </mxGeometry>
        </mxCell>
        <mxCell id="AgGkoCsOweHNP-nbP5R2-16" value="yest" style="edgeLabel;html=1;align=center;verticalAlign=middle;resizable=0;points=[];" vertex="1" connectable="0" parent="AgGkoCsOweHNP-nbP5R2-15">
          <mxGeometry x="-0.1395" relative="1" as="geometry">
            <mxPoint as="offset" />
          </mxGeometry>
        </mxCell>
        <mxCell id="PeCGJ06TXOLZpOecFhSK-46" value="&lt;font style=&quot;font-size: 17px;&quot;&gt;beli di mini market&amp;nbsp;&lt;/font&gt;" style="rounded=0;whiteSpace=wrap;html=1;" parent="1" vertex="1">
          <mxGeometry x="650" y="430" width="130" height="80" as="geometry" />
        </mxCell>
        <mxCell id="AgGkoCsOweHNP-nbP5R2-1" style="edgeStyle=orthogonalEdgeStyle;rounded=0;orthogonalLoop=1;jettySize=auto;html=1;exitX=0.5;exitY=1;exitDx=0;exitDy=0;" edge="1" parent="1" source="PeCGJ06TXOLZpOecFhSK-42">
          <mxGeometry relative="1" as="geometry">
            <mxPoint x="460" y="570" as="targetPoint" />
          </mxGeometry>
        </mxCell>
        <mxCell id="PeCGJ06TXOLZpOecFhSK-42" value="&lt;font style=&quot;font-size: 17px;&quot;&gt;apakah ada pop mie ?&lt;/font&gt;" style="rhombus;whiteSpace=wrap;html=1;" parent="1" vertex="1">
          <mxGeometry x="360" y="400" width="200" height="140" as="geometry" />
        </mxCell>
        <mxCell id="AgGkoCsOweHNP-nbP5R2-2" value="&lt;font style=&quot;font-size: 19px;&quot;&gt;tidak&lt;/font&gt;" style="text;html=1;align=center;verticalAlign=middle;resizable=0;points=[];autosize=1;strokeColor=none;fillColor=none;" vertex="1" parent="1">
          <mxGeometry x="565" y="420" width="60" height="40" as="geometry" />
        </mxCell>
        <mxCell id="AgGkoCsOweHNP-nbP5R2-4" style="edgeStyle=orthogonalEdgeStyle;rounded=0;orthogonalLoop=1;jettySize=auto;html=1;exitX=0.5;exitY=1;exitDx=0;exitDy=0;" edge="1" parent="1" source="AgGkoCsOweHNP-nbP5R2-3">
          <mxGeometry relative="1" as="geometry">
            <mxPoint x="460" y="680" as="targetPoint" />
          </mxGeometry>
        </mxCell>
        <mxCell id="AgGkoCsOweHNP-nbP5R2-3" value="&lt;font style=&quot;font-size: 17px;&quot;&gt;Buka Bungkus Dan Bumbu Mie&lt;/font&gt;" style="rounded=0;whiteSpace=wrap;html=1;" vertex="1" parent="1">
          <mxGeometry x="375" y="580" width="170" height="70" as="geometry" />
        </mxCell>
        <mxCell id="AgGkoCsOweHNP-nbP5R2-6" style="edgeStyle=orthogonalEdgeStyle;rounded=0;orthogonalLoop=1;jettySize=auto;html=1;exitX=0.5;exitY=1;exitDx=0;exitDy=0;" edge="1" parent="1" source="AgGkoCsOweHNP-nbP5R2-5">
          <mxGeometry relative="1" as="geometry">
            <mxPoint x="460" y="780" as="targetPoint" />
          </mxGeometry>
        </mxCell>
        <mxCell id="AgGkoCsOweHNP-nbP5R2-5" value="&lt;font style=&quot;font-size: 17px;&quot;&gt;Rebus Air&lt;/font&gt;" style="rounded=0;whiteSpace=wrap;html=1;" vertex="1" parent="1">
          <mxGeometry x="392.5" y="680" width="135" height="70" as="geometry" />
        </mxCell>
        <mxCell id="AgGkoCsOweHNP-nbP5R2-8" style="edgeStyle=orthogonalEdgeStyle;rounded=0;orthogonalLoop=1;jettySize=auto;html=1;exitX=0.5;exitY=1;exitDx=0;exitDy=0;entryX=0.43;entryY=0;entryDx=0;entryDy=0;entryPerimeter=0;" edge="1" parent="1" source="AgGkoCsOweHNP-nbP5R2-7" target="AgGkoCsOweHNP-nbP5R2-9">
          <mxGeometry relative="1" as="geometry">
            <mxPoint x="463" y="880" as="targetPoint" />
            <Array as="points">
              <mxPoint x="460" y="880" />
            </Array>
          </mxGeometry>
        </mxCell>
        <mxCell id="AgGkoCsOweHNP-nbP5R2-7" value="&lt;font style=&quot;font-size: 17px;&quot;&gt;Masukkan Rebusan Air KE dalam Cup Mie&lt;/font&gt;" style="rounded=0;whiteSpace=wrap;html=1;" vertex="1" parent="1">
          <mxGeometry x="390" y="780" width="140" height="70" as="geometry" />
        </mxCell>
        <mxCell id="AgGkoCsOweHNP-nbP5R2-10" style="edgeStyle=orthogonalEdgeStyle;rounded=0;orthogonalLoop=1;jettySize=auto;html=1;exitX=0.5;exitY=1;exitDx=0;exitDy=0;" edge="1" parent="1" source="AgGkoCsOweHNP-nbP5R2-9">
          <mxGeometry relative="1" as="geometry">
            <mxPoint x="468" y="980" as="targetPoint" />
            <Array as="points">
              <mxPoint x="468" y="970" />
              <mxPoint x="468" y="970" />
            </Array>
          </mxGeometry>
        </mxCell>
        <mxCell id="AgGkoCsOweHNP-nbP5R2-9" value="&lt;span style=&quot;font-size: 17px;&quot;&gt;Menunggu Mie matang&lt;/span&gt;" style="rounded=0;whiteSpace=wrap;html=1;" vertex="1" parent="1">
          <mxGeometry x="398.12" y="890" width="143.75" height="70" as="geometry" />
        </mxCell>
        <mxCell id="AgGkoCsOweHNP-nbP5R2-12" style="edgeStyle=orthogonalEdgeStyle;rounded=0;orthogonalLoop=1;jettySize=auto;html=1;exitX=0.5;exitY=1;exitDx=0;exitDy=0;" edge="1" parent="1" source="AgGkoCsOweHNP-nbP5R2-11">
          <mxGeometry relative="1" as="geometry">
            <mxPoint x="470" y="1080" as="targetPoint" />
          </mxGeometry>
        </mxCell>
        <mxCell id="AgGkoCsOweHNP-nbP5R2-11" value="&lt;font style=&quot;font-size: 15px;&quot;&gt;Mie siap di makan&lt;/font&gt;" style="rounded=0;whiteSpace=wrap;html=1;" vertex="1" parent="1">
          <mxGeometry x="405" y="980" width="130" height="70" as="geometry" />
        </mxCell>
        <mxCell id="AgGkoCsOweHNP-nbP5R2-14" value="&lt;font style=&quot;font-size: 17px;&quot;&gt;Selesai&lt;/font&gt;" style="ellipse;whiteSpace=wrap;html=1;" vertex="1" parent="1">
          <mxGeometry x="400" y="1080" width="120" height="80" as="geometry" />
        </mxCell>
        <mxCell id="AgGkoCsOweHNP-nbP5R2-17" value="&lt;font style=&quot;font-size: 15px;&quot;&gt;Masukkan Rebusan Air KE dalam Cup Mie&lt;/font&gt;" style="shape=parallelogram;perimeter=parallelogramPerimeter;whiteSpace=wrap;html=1;fixedSize=1;" vertex="1" parent="1">
          <mxGeometry x="360" y="780" width="290" height="90" as="geometry" />
        </mxCell>
      </root>
    </mxGraphModel>
  </diagram>
</mxfile>
